<?xml version="1.0" encoding="UTF-8"?>
<!DOCTYPE svg PUBLIC "-//W3C//DTD SVG 1.1//EN" "http://www.w3.org/Graphics/SVG/1.1/DTD/svg11.dtd">
<!-- Creator: CorelDRAW X7 -->
<svg xmlns="http://www.w3.org/2000/svg" xml:space="preserve" width="12.8952mm" height="12.8952mm" version="1.1" style="shape-rendering:geometricPrecision; text-rendering:geometricPrecision; image-rendering:optimizeQuality; fill-rule:evenodd; clip-rule:evenodd"
viewBox="0 0 139 139"
 xmlns:xlink="http://www.w3.org/1999/xlink">
 <defs>
  <style type="text/css">
   <![CDATA[
    .fil0 {fill:#FE2B01}
   ]]>
  </style>
 </defs>
 <g id="Слой_x0020_1">
  <metadata id="CorelCorpID_0Corel-Layer"/>
  <path class="fil0" d="M69 0c39,0 70,31 70,69 0,39 -31,70 -70,70 -38,0 -69,-31 -69,-70 0,-38 31,-69 69,-69zm-13 69c3,0 5,2 5,5 0,3 -2,5 -5,5 -2,0 -4,-2 -4,-5 0,-3 2,-5 4,-5zm20 10c-2,0 -4,-2 -4,-5 0,-3 2,-5 4,-5 3,0 5,2 5,5 0,3 -2,5 -5,5zm-40 -10c3,0 5,2 5,5 0,3 -2,5 -5,5 -2,0 -4,-2 -4,-5 0,-3 2,-5 4,-5zm83 -38c1,-2 2,-4 0,-6 -1,-2 -4,-3 -6,-4 -2,-1 -5,-1 -7,1 0,0 -1,2 -3,4 -2,6 -4,7 -8,14 -5,0 -11,0 -16,0l-42 0c-3,0 -5,0 -8,1 -5,1 -8,5 -10,11 0,2 0,9 0,12 0,5 0,11 0,16 0,6 0,11 2,15 2,3 6,6 10,7 3,0 30,0 34,0 2,0 1,0 3,1l8 4c7,4 15,8 22,12 1,1 4,2 6,0 0,0 1,-1 0,-3l-4 -8c0,-1 -2,-6 -2,-6 4,-1 6,0 9,-1 3,-1 5,-3 6,-5 4,-5 3,-9 3,-17 0,-6 0,-13 0,-20 0,-7 1,-10 -5,-15 4,-7 6,-10 8,-13zm-30 16c-4,0 -8,0 -13,0l-41 0c-3,0 -4,0 -6,1 -1,1 -2,2 -3,4 0,2 0,4 0,7 0,5 0,11 0,16 0,3 0,6 0,9 0,2 0,4 1,6 0,3 2,4 5,5 1,0 3,0 4,0 10,0 19,0 28,0 3,0 3,0 6,1l16 9c2,1 4,2 7,4 0,0 1,0 1,0 0,0 0,0 0,-1 -1,-2 -2,-4 -3,-6 -1,-1 -2,-3 -2,-5l0 -2 2 0c3,0 5,0 8,0 2,0 4,0 6,0 1,-1 2,-2 3,-3 1,-1 1,-1 1,-2 1,-3 1,-6 1,-9 0,-5 0,-11 0,-16 0,-4 0,-7 0,-10 0,-1 0,-2 -1,-3 -1,2 -2,4 -3,6l-1 0 -7 8c-2,2 -3,4 -5,5 -2,1 -4,2 -6,1 -2,0 -3,-2 -3,-5 0,-4 2,-12 3,-16 1,-2 2,-3 2,-4zm-53 50c10,0 19,0 28,0 3,0 3,0 5,1l16 9c1,0 13,7 13,7 0,-1 -4,-11 -5,-13 0,0 -2,-3 -2,-4 2,0 5,0 8,0 2,0 5,1 7,0 2,-1 3,-3 4,-4 1,-1 1,-1 1,-2 1,-3 1,-6 1,-10 0,-5 0,-11 0,-16 0,-4 0,-7 0,-10 0,-2 0,-3 -1,-4 0,-1 -1,-3 -2,-3 -1,1 -4,8 -5,9l-7 8c-2,1 -4,3 -6,4 -1,1 -2,2 -3,1 -2,0 -2,-1 -2,-3 0,-3 3,-12 4,-16 0,-2 2,-5 3,-6 -6,-1 -11,-1 -17,-1l-41 0c-3,0 -5,1 -7,2 -2,1 -3,3 -4,5 0,2 0,5 0,8 0,5 0,11 0,16 0,3 0,6 0,9 0,3 0,5 1,7 1,3 3,5 6,6 1,0 2,0 5,0zm77 -64c0,1 0,2 -1,2l-4 8c-2,3 -5,8 -6,11 -1,0 -8,-4 -8,-4 1,-2 6,-10 6,-11 1,-1 4,-6 6,-9l7 3zm-23 33c1,0 6,-5 7,-7 0,0 2,-2 2,-2 0,-1 -6,-4 -6,-4 -1,1 -3,12 -3,13zm17 -39c1,0 8,3 8,4 0,-1 1,-2 1,-2 0,-1 1,-1 0,-2 0,-2 -4,-4 -7,-3 -1,0 -1,2 -2,3z"/>
 </g>
</svg>
