<?xml version="1.0" encoding="UTF-8"?>
<!DOCTYPE svg PUBLIC "-//W3C//DTD SVG 1.1//EN" "http://www.w3.org/Graphics/SVG/1.1/DTD/svg11.dtd">
<!-- Creator: CorelDRAW X7 -->
<svg xmlns="http://www.w3.org/2000/svg" xml:space="preserve" width="60mm" height="60mm" version="1.1" style="shape-rendering:geometricPrecision; text-rendering:geometricPrecision; image-rendering:optimizeQuality; fill-rule:evenodd; clip-rule:evenodd"
viewBox="0 0 2202 2202"
 xmlns:xlink="http://www.w3.org/1999/xlink">
 <defs>
  <style type="text/css">
   <![CDATA[
    .fil0 {fill:#ff2b01}
   ]]>
  </style>
 </defs>
 <g id="Слой_x0020_1">
  <metadata id="CorelCorpID_0Corel-Layer"/>
  <path class="fil0" d="M790 330c-19,28 -30,150 -70,261 -94,265 -496,911 125,1127 256,90 273,32 491,-98 67,-40 392,-209 413,-245 81,-143 -67,-442 -124,-527 -91,-135 -227,-226 -364,-308 -117,-70 -315,-209 -471,-210zm551 705c-229,69 -114,371 86,314 206,-59 114,-375 -86,-314zm-865 -47c1,-28 89,-232 110,-285 44,-114 84,-212 96,-343 -103,34 -168,110 -198,227 -16,60 -17,333 -8,401zm482 314c-169,61 -68,313 98,247 54,-21 94,-90 72,-165 -18,-65 -86,-113 -170,-82zm20 524c-76,-35 -188,-33 -303,-92 -89,-47 -152,-110 -200,-203 -35,231 290,455 503,295zm858 -622l-2 83c136,-151 44,-430 -145,-496 64,101 152,240 147,413zm-735 -1204c608,0 1101,493 1101,1101 0,608 -493,1101 -1101,1101 -608,0 -1101,-493 -1101,-1101 0,-608 493,-1101 1101,-1101z"/>
 </g>
</svg>
