<?xml version="1.0" encoding="UTF-8"?>
<!DOCTYPE svg PUBLIC "-//W3C//DTD SVG 1.1//EN" "http://www.w3.org/Graphics/SVG/1.1/DTD/svg11.dtd">
<!-- Creator: CorelDRAW X7 -->
<svg xmlns="http://www.w3.org/2000/svg" xml:space="preserve" width="125.426mm" height="22.4412mm" version="1.1" style="shape-rendering:geometricPrecision; text-rendering:geometricPrecision; image-rendering:optimizeQuality; fill-rule:evenodd; clip-rule:evenodd"
viewBox="0 0 13064 2337"
 xmlns:xlink="http://www.w3.org/1999/xlink">
 <defs>
  <style type="text/css">
   <![CDATA[
    .fil1 {fill:#FEFEFE}
    .fil0 {fill:#FF2E01}
   ]]>
  </style>
 </defs>
 <g id="Слой_x0020_1">
  <metadata id="CorelCorpID_0Corel-Layer"/>
  <path class="fil0" d="M9032 1250c0,39 0,78 -2,114 -3,35 -8,66 -13,98l15 -212 0 0zm0 0c-1,-19 -2,-39 -4,-58 -3,-57 -10,-109 -20,-154 -11,-45 -26,-84 -47,-117 -38,-58 -103,-100 -208,-123 -15,-3 -29,-5 -43,-6 -52,-3 -108,8 -153,38 -41,28 -73,75 -86,145 -22,107 -268,111 -236,-50 10,-72 31,-133 64,-182 35,-50 81,-89 132,-120 48,-29 99,-49 150,-61 50,-13 101,-17 150,-14 29,2 55,5 79,10 86,20 156,49 213,87 58,39 103,87 139,143 34,53 58,112 75,176 16,64 26,135 31,209 6,83 9,172 2,254 -10,106 -38,209 -102,294 -60,82 -148,140 -243,176 -102,39 -215,52 -310,40 -4,-1 -10,-2 -18,-3 -125,-21 -226,-84 -293,-171 -55,-74 -86,-164 -87,-258 -1,-147 230,-90 248,27 5,30 17,58 35,81 30,39 77,68 137,78 1,1 4,1 9,1 57,8 128,-1 192,-25 55,-21 103,-52 133,-92 30,-41 46,-97 53,-158l8 -167 0 0zm-2126 378l-11 -2c-126,0 -224,12 -350,83 -114,65 -242,-137 -178,-179 20,-13 39,-25 58,-36 -43,-29 -80,-62 -111,-101 -46,-56 -81,-122 -105,-196 -24,-72 -37,-153 -36,-233 0,-77 12,-153 40,-218 30,-71 77,-128 134,-171 59,-44 130,-72 204,-84 72,-11 149,-7 219,13 60,18 115,49 160,92 38,-39 85,-66 135,-84 63,-21 134,-27 196,-23 60,5 115,20 163,47 24,14 45,30 64,50 37,-40 82,-66 130,-81 63,-19 130,-20 190,-9 56,10 108,29 153,60 46,31 82,73 107,125 23,45 35,104 40,166 3,41 3,85 1,128 -9,181 -254,148 -246,-11 2,-33 2,-67 -1,-98 -2,-34 -7,-62 -14,-77 -6,-13 -15,-23 -26,-30 -14,-10 -34,-17 -56,-21 -26,-4 -53,-4 -75,2 -11,4 -20,10 -26,18 -30,41 -37,148 -40,202 -3,44 -1,7 -2,20 0,20 -1,36 -4,49 -14,98 -234,88 -245,-19 -1,-7 -2,-19 -4,-37 -2,-24 -6,-61 -13,-102 -6,-33 -15,-67 -27,-90 -8,-15 -17,-25 -28,-31 -15,-9 -36,-14 -60,-16 -32,-2 -67,0 -97,11 -18,6 -34,15 -43,26 -33,44 -32,98 -32,152 0,94 -3,170 -120,167 -149,-3 -120,-93 -152,-230 -7,-31 -18,-62 -35,-82 -14,-17 -37,-30 -64,-37 -34,-11 -73,-13 -110,-7 -35,5 -68,19 -94,38 -24,18 -43,41 -55,70 -15,34 -21,77 -21,123 -1,53 8,108 24,157 14,45 35,83 61,115 24,29 54,53 90,71 42,21 92,36 146,47 53,10 112,18 172,25 26,0 52,1 80,2 18,0 36,0 62,1 154,2 304,7 451,44 106,26 208,66 301,132 209,147 24,332 -120,221 -76,-58 -156,-93 -241,-115 -122,-30 -257,-34 -396,-37 -17,0 -40,0 -62,-1 -28,0 -55,-1 -81,-1l0 2 0 0zm154 -651l0 1 0 0c0,0 0,-1 0,-1zm-1776 578c18,32 40,62 68,81 35,24 85,42 138,50 54,9 109,8 157,-5 51,-14 99,-38 140,-69 37,-28 69,-63 90,-102 18,-34 24,-77 20,-121 -5,-46 -22,-93 -51,-131 -39,-53 -116,-106 -188,-155 -52,-36 -102,-69 -144,-107 -171,-154 -184,-231 -172,-407 9,-134 252,-97 246,-2 -7,101 1,146 91,226 29,26 72,56 117,86 89,60 184,126 248,213 55,74 88,163 98,253 9,91 -6,183 -48,261 -39,72 -94,133 -159,183 -66,49 -143,87 -223,109 -81,22 -173,25 -260,12 -89,-15 -175,-47 -241,-93 -62,-42 -109,-101 -142,-164 -92,-276 152,-267 215,-118l0 0zm-1418 -758c35,-142 114,-238 212,-297 94,-57 204,-76 304,-68 29,2 56,6 80,12 177,43 287,124 358,240 66,107 90,237 98,388 3,65 3,131 -1,195 -4,63 -12,121 -24,171 -35,141 -90,246 -171,323 -83,79 -185,124 -311,143 -81,12 -165,8 -243,-12 -79,-20 -152,-56 -211,-106 -68,-59 -117,-135 -141,-216 -17,-59 -21,-121 -10,-181 12,-62 39,-121 84,-173 55,-64 135,-116 244,-148 80,-23 166,-27 247,-14 85,13 167,45 234,88 23,15 42,28 59,40 1,-32 0,-64 -2,-98 -6,-113 -21,-207 -62,-273 -36,-58 -99,-101 -205,-127 -15,-4 -29,-6 -43,-7 -53,-4 -110,5 -157,34 -45,27 -82,73 -99,143 -25,107 -278,104 -240,-57l0 0zm686 787c26,-25 49,-58 67,-99 -19,-34 -33,-55 -48,-70 -18,-19 -45,-38 -90,-67 -38,-25 -87,-43 -138,-51 -48,-7 -96,-6 -140,7 -60,17 -101,43 -127,73 -15,18 -25,37 -29,57 -3,22 -2,44 5,67 10,35 33,70 66,98 29,26 67,44 110,55 47,11 97,14 146,6 77,-11 135,-35 178,-76l0 0zm-4552 -1584l13064 0 0 2337 -13064 0 0 -2337z"/>
  <path class="fil1" d="M4552 1584c26,-25 49,-58 67,-99 -19,-34 -33,-55 -48,-70 -18,-19 -45,-38 -90,-67 -38,-25 -87,-43 -138,-51 -48,-7 -96,-6 -140,7 -60,17 -101,43 -127,73 -15,18 -25,37 -29,57 -3,22 -2,44 5,67 10,35 33,70 66,98 29,26 67,44 110,55 47,11 97,14 146,6 77,-11 135,-35 178,-76l0 0zm-686 -787c35,-142 114,-238 212,-297 94,-57 204,-76 304,-68 29,2 56,6 80,12 177,43 287,124 358,240 66,107 90,237 98,388 3,65 3,131 -1,195 -4,63 -12,121 -24,171 -35,141 -90,246 -171,323 -83,79 -185,124 -311,143 -81,12 -165,8 -243,-12 -79,-20 -152,-56 -211,-106 -68,-59 -117,-135 -141,-216 -17,-59 -21,-121 -10,-181 12,-62 39,-121 84,-173 55,-64 135,-116 244,-148 80,-23 166,-27 247,-14 85,13 167,45 234,88 23,15 42,28 59,40 1,-32 0,-64 -2,-98 -6,-113 -21,-207 -62,-273 -36,-58 -99,-101 -205,-127 -15,-4 -29,-6 -43,-7 -53,-4 -110,5 -157,34 -45,27 -82,73 -99,143 -25,107 -278,104 -240,-57l0 0zm1418 758c18,32 40,62 68,81 35,24 85,42 138,50 54,9 109,8 157,-5 51,-14 99,-38 140,-69 37,-28 69,-63 90,-102 18,-34 24,-77 20,-121 -5,-46 -22,-93 -51,-131 -39,-53 -116,-106 -188,-155 -52,-36 -102,-69 -144,-107 -171,-154 -184,-231 -172,-407 9,-134 252,-97 246,-2 -7,101 1,146 91,226 29,26 72,56 117,86 89,60 184,126 248,213 55,74 88,163 98,253 9,91 -6,183 -48,261 -39,72 -94,133 -159,183 -66,49 -143,87 -223,109 -81,22 -173,25 -260,12 -89,-15 -175,-47 -241,-93 -62,-42 -109,-101 -142,-164 -92,-276 152,-267 215,-118l0 0zm1776 -578l0 1 0 0c0,0 0,-1 0,-1zm-154 651l-11 -2c-126,0 -224,12 -350,83 -114,65 -242,-137 -178,-179 20,-13 39,-25 58,-36 -43,-29 -80,-62 -111,-101 -46,-56 -81,-122 -105,-196 -24,-72 -37,-153 -36,-233 0,-77 12,-153 40,-218 30,-71 77,-128 134,-171 59,-44 130,-72 204,-84 72,-11 149,-7 219,13 60,18 115,49 160,92 38,-39 85,-66 135,-84 63,-21 134,-27 196,-23 60,5 115,20 163,47 24,14 45,30 64,50 37,-40 82,-66 130,-81 63,-19 130,-20 190,-9 56,10 108,29 153,60 46,31 82,73 107,125 23,45 35,104 40,166 3,41 3,85 1,128 -9,181 -254,148 -246,-11 2,-33 2,-67 -1,-98 -2,-34 -7,-62 -14,-77 -6,-13 -15,-23 -26,-30 -14,-10 -34,-17 -56,-21 -26,-4 -53,-4 -75,2 -11,4 -20,10 -26,18 -30,41 -37,148 -40,202 -3,44 -1,7 -2,20 0,20 -1,36 -4,49 -14,98 -234,88 -245,-19 -1,-7 -2,-19 -4,-37 -2,-24 -6,-61 -13,-102 -6,-33 -15,-67 -27,-90 -8,-15 -17,-25 -28,-31 -15,-9 -36,-14 -60,-16 -32,-2 -67,0 -97,11 -18,6 -34,15 -43,26 -33,44 -32,98 -32,152 0,94 -3,170 -120,167 -149,-3 -120,-93 -152,-230 -7,-31 -18,-62 -35,-82 -14,-17 -37,-30 -64,-37 -34,-11 -73,-13 -110,-7 -35,5 -68,19 -94,38 -24,18 -43,41 -55,70 -15,34 -21,77 -21,123 -1,53 8,108 24,157 14,45 35,83 61,115 24,29 54,53 90,71 42,21 92,36 146,47 53,10 112,18 172,25 26,0 52,1 80,2 18,0 36,0 62,1 154,2 304,7 451,44 106,26 208,66 301,132 209,147 24,332 -120,221 -76,-58 -156,-93 -241,-115 -122,-30 -257,-34 -396,-37 -17,0 -40,0 -62,-1 -28,0 -55,-1 -81,-1l0 2 0 0zm2126 -378c-1,-19 -2,-39 -4,-58 -3,-57 -10,-109 -20,-154 -11,-45 -26,-84 -47,-117 -38,-58 -102,-100 -208,-123 -15,-3 -29,-5 -43,-6 -52,-3 -108,8 -153,38 -41,28 -73,75 -86,145 -22,107 -268,111 -236,-50 10,-72 31,-133 64,-182 35,-50 81,-89 132,-120 48,-29 99,-49 150,-61 50,-13 101,-17 150,-14 29,2 55,5 79,10 86,20 156,49 213,87 58,39 103,87 139,143 34,53 58,112 75,176 16,64 26,135 31,209 6,83 9,172 2,254 -10,106 -38,209 -102,294 -60,82 -148,140 -243,176 -102,39 -215,52 -310,40 -4,-1 -10,-2 -18,-3 -125,-21 -226,-84 -293,-171 -55,-74 -86,-164 -87,-258 -1,-147 230,-90 248,27 5,30 17,58 35,81 30,39 77,68 137,78 1,1 4,1 9,1 57,8 128,-1 192,-25 55,-21 103,-52 133,-92 30,-41 46,-97 53,-158l8 -167 0 0zm0 0c0,39 0,78 -2,114 -3,35 -8,66 -13,98l15 -212 0 0z"/>
 </g>
</svg>
