<?xml version="1.0" encoding="UTF-8"?>
<!DOCTYPE svg PUBLIC "-//W3C//DTD SVG 1.1//EN" "http://www.w3.org/Graphics/SVG/1.1/DTD/svg11.dtd">
<!-- Creator: CorelDRAW X7 -->
<svg xmlns="http://www.w3.org/2000/svg" xml:space="preserve" width="186.236mm" height="50.2121mm" version="1.1" style="shape-rendering:geometricPrecision; text-rendering:geometricPrecision; image-rendering:optimizeQuality; fill-rule:evenodd; clip-rule:evenodd"
viewBox="0 0 19138 5160"
 xmlns:xlink="http://www.w3.org/1999/xlink">
 <defs>
  <style type="text/css">
   <![CDATA[
    .fil0 {fill:#FF2E01}
   ]]>
  </style>
 </defs>
 <g id="Слой_x0020_1">
  <metadata id="CorelCorpID_0Corel-Layer"/>
  <g>
   <path class="fil0" d="M14764 2763c0,86 0,172 -5,249 -5,77 -17,146 -28,215l33 -464zm0 0c-2,-41 -4,-84 -8,-127 -8,-124 -22,-236 -45,-335 -23,-100 -56,-186 -102,-257 -84,-126 -224,-218 -455,-268 -33,-7 -65,-12 -93,-14 -115,-6 -237,18 -335,83 -91,61 -161,164 -188,319 -48,233 -587,241 -518,-111 22,-157 67,-290 141,-398 76,-110 177,-195 288,-261 106,-65 216,-109 328,-136 110,-26 222,-36 329,-29 63,3 120,11 172,22 188,42 342,106 467,190 125,85 224,190 303,313 75,116 128,245 164,385 36,141 56,294 68,458 14,181 21,376 4,554 -21,232 -83,459 -221,644 -132,178 -325,306 -532,384 -224,85 -471,114 -679,87 -8,-1 -21,-3 -39,-6 -274,-45 -495,-184 -640,-375 -123,-160 -191,-356 -192,-564 -2,-321 504,-197 544,60 10,66 36,127 75,178 65,86 169,148 301,170 2,1 8,2 19,3 126,16 279,-3 420,-56 119,-45 225,-113 291,-201 66,-90 100,-213 115,-346l18 -366zm-4650 827l-24 -3c-276,0 -491,26 -765,182 -250,142 -531,-301 -391,-393 44,-28 86,-54 127,-78 -92,-62 -173,-137 -243,-222 -101,-122 -177,-265 -229,-427 -51,-158 -80,-336 -80,-509 0,-169 28,-336 89,-478 66,-156 169,-281 294,-374 129,-96 283,-158 445,-183 159,-26 327,-17 478,29 132,39 253,106 350,201 84,-87 186,-146 295,-184 140,-48 294,-61 429,-50 133,10 253,42 357,102 52,30 100,66 142,107 80,-85 179,-142 284,-174 137,-43 284,-44 414,-22 124,22 237,65 335,132 100,69 180,160 236,273 48,99 75,228 85,364 7,90 7,186 3,278 -20,397 -556,327 -538,-23 4,-71 4,-145 -1,-214 -6,-74 -16,-136 -32,-168 -14,-28 -33,-50 -57,-66 -31,-22 -73,-37 -123,-45 -55,-10 -114,-11 -163,5 -24,7 -45,19 -58,38 -65,90 -79,325 -87,442 -5,96 -2,16 -3,43 -2,43 -4,80 -10,107 -31,216 -512,193 -535,-41 -2,-15 -5,-41 -9,-80 -5,-54 -13,-134 -29,-224 -13,-72 -32,-146 -59,-198 -17,-31 -37,-53 -62,-67 -33,-19 -77,-30 -131,-34 -69,-5 -145,1 -212,24 -40,14 -73,33 -92,58 -74,95 -72,214 -72,331 1,206 -6,372 -262,366 -326,-8 -263,-205 -332,-503 -16,-69 -40,-137 -77,-180 -32,-37 -81,-65 -140,-82 -76,-23 -160,-28 -241,-15 -76,12 -148,41 -206,84 -51,38 -93,89 -120,152 -32,75 -47,170 -47,270 0,116 20,236 54,343 32,98 76,181 132,250 53,65 119,117 198,157 91,47 201,78 321,102 116,23 244,40 375,56 56,1 114,2 175,3 39,1 79,2 134,3 337,5 666,16 988,97 232,56 455,145 658,288 456,321 53,726 -263,483 -164,-127 -341,-203 -526,-250 -267,-67 -562,-76 -866,-81 -39,0 -88,-1 -136,-2 -62,-2 -121,-3 -177,-3l0 3zm337 -1423l0 2 1 0c0,0 -1,-1 -1,-2zm-3885 1265c38,70 88,134 148,176 78,54 186,93 302,111 118,19 239,16 344,-13 111,-30 216,-81 305,-149 83,-62 151,-138 198,-224 40,-74 54,-168 44,-264 -11,-102 -49,-204 -111,-288 -86,-117 -255,-231 -412,-338 -115,-78 -224,-152 -315,-234 -376,-337 -403,-506 -377,-890 20,-294 553,-213 539,-6 -15,222 2,319 198,496 63,57 158,121 256,188 195,132 403,274 544,464 120,162 192,358 213,554 20,199 -13,401 -105,573 -84,156 -204,290 -347,399 -144,108 -312,190 -489,239 -178,48 -378,54 -567,24 -196,-31 -384,-100 -528,-201 -134,-94 -237,-222 -311,-358 -200,-604 333,-584 471,-259zm-3101 -1658c75,-312 249,-521 462,-650 207,-124 447,-167 666,-149 64,5 123,14 175,27 386,93 628,271 782,523 145,236 198,520 215,850 7,142 7,286 -2,426 -10,138 -27,265 -53,374 -75,309 -197,539 -374,708 -180,172 -405,270 -681,312 -176,26 -360,17 -530,-26 -172,-44 -333,-122 -462,-233 -149,-129 -256,-295 -309,-473 -37,-129 -46,-264 -21,-396 26,-135 85,-264 184,-378 119,-138 294,-253 534,-323 174,-51 361,-58 539,-30 187,29 366,97 513,193 49,31 91,60 129,87 1,-69 -1,-141 -5,-215 -13,-248 -46,-452 -135,-596 -79,-128 -217,-223 -448,-279 -34,-8 -65,-14 -94,-16 -116,-9 -241,12 -345,75 -97,58 -178,159 -216,314 -56,232 -609,226 -524,-125zm1500 1721c57,-55 106,-127 146,-218 -41,-72 -72,-118 -104,-152 -40,-41 -99,-82 -197,-146 -85,-55 -191,-95 -303,-112 -104,-16 -210,-13 -306,15 -131,38 -222,94 -277,159 -34,39 -55,83 -63,126 -9,47 -5,97 9,146 23,78 73,154 145,216 64,55 148,95 241,118 102,26 213,31 320,15 167,-25 296,-77 389,-167zm13099 -3405c-9,-83 -4,-27 -22,-58l-207 -1c12,65 15,6 100,105l-88 -17c13,46 12,65 8,122 245,39 33,103 468,34 135,-22 155,-58 184,-96l51 -45c37,-23 -4,32 42,-33 47,-68 4,-46 75,-101l-405 32c-104,20 -83,-64 -206,58zm-3701 475c67,2 39,-13 89,-20 32,-4 32,9 83,6 132,-9 178,-43 374,-52 7,-1 45,-4 50,-5l135 -7c10,-219 -19,71 -157,-110l-36 -30c-3,-1 -6,-2 -9,-3 -2,0 -5,-1 -8,-2l-304 -183c44,-26 44,-5 54,-84 -22,14 -31,18 -52,44 -95,115 -37,33 -97,93 -166,163 -163,220 -122,353zm-13923 2639c-15,16 -25,51 -16,98 -3,-3 -18,-22 -23,-25l-40 -7c-50,-2 -80,-25 -113,-4 -56,35 -5,-7 -25,38 -39,86 28,43 -53,75l-30 -188c6,-216 -24,-384 -36,-586 -8,-124 -17,-188 -64,-246 -50,125 -21,493 5,639l31 147c-33,19 -41,0 -68,23 -19,119 1,199 7,284l11 -1c25,7 -9,-28 12,5 17,25 97,1025 95,1126 -3,141 -27,65 -29,170 79,15 151,-6 235,-6 89,0 184,19 282,21l495 6c204,-30 1209,47 1534,28l497 11c87,8 313,26 392,10 87,-18 34,16 100,18 24,0 67,-14 113,-13l375 46 -171 84c-81,-4 -56,23 -77,-41l-31 46c-34,-16 -23,-24 -49,-51 -32,56 8,42 -58,81l-270 40c-774,97 -2126,81 -2931,41 -141,-7 -288,-34 -431,-11l-54 18c140,102 2437,69 2778,57 456,-17 925,0 1385,1 470,0 939,6 1405,5 1849,-4 3694,-28 5542,-22 -3,-4 -8,-14 -11,-9l-85 -47c-46,-26 -38,-24 -62,-75 63,-14 63,-21 135,-9 27,4 52,13 76,18l59 -7c-33,-36 -87,-38 -126,-66 -3,-2 -8,-6 -11,-10 133,15 274,15 404,51 105,29 4,10 66,57 97,0 134,21 218,-22 82,-42 11,-7 79,-15 45,-6 -3,2 42,-13 125,-43 1242,-94 1409,-87 73,3 148,-10 223,-15 84,-5 148,15 230,5 162,-18 287,-26 437,-23 23,1 71,-3 108,-3 34,-1 17,2 43,-3l46 -17c3,-1 6,-2 10,-2l205 -4c88,-1 292,16 367,-36l37 -31c4,33 -12,22 16,43 55,42 137,-15 196,-12 102,4 162,36 270,9 229,-58 161,36 302,-2l27 -8c117,-15 38,-2 125,-46 20,43 9,18 25,34 45,45 98,24 158,10l15 -4c59,-12 -3,34 74,19 51,-10 34,-62 90,-43 77,26 78,20 130,-46 21,65 58,37 111,55 137,49 237,-12 353,-26l61 5c55,-5 25,-56 65,27 37,-52 58,-28 106,-18l31 3c2,0 6,-1 8,-2 69,-10 31,-1 87,17 54,18 55,-9 94,-27 27,84 2,100 94,86 -18,-20 -6,-8 -32,-24 -21,-12 -14,-1 -39,-18 62,-18 32,1 59,-66 29,21 -2,-1 19,24 38,43 -24,-5 40,42 26,-73 34,-48 100,-29 2,-5 5,-19 6,-16l23 -38c1,0 10,-50 55,7 23,30 21,34 18,81 -37,19 -38,-13 -71,-11l-62 13c-12,2 -27,1 -38,4 -41,10 -2,-14 -34,15 55,56 309,32 365,7 51,-22 91,-24 155,7 80,38 112,19 183,-4 9,68 1,151 -12,245l-21 -49c-2,-4 -6,-10 -7,-14 -2,-4 -5,-10 -8,-15 -27,49 -24,41 -67,62l57 -100c-88,-26 -13,-31 -61,-42 -54,-13 -16,16 -69,41 -153,73 -409,75 -569,85 -128,9 -267,7 -389,23 -137,17 -253,3 -373,75 317,35 721,1 1049,5 320,4 766,41 1068,-5 -6,-59 -31,-92 -30,-157 1,-101 9,-20 -27,-128 39,-21 15,-11 51,-24l45 157c16,-85 32,-74 -14,-141 -102,-152 -75,-53 -83,-300 -71,104 7,44 -49,187 -21,54 15,14 -30,48 -18,-87 -78,-471 -67,-538l41 -10c48,13 -17,-2 37,31 24,-64 7,-49 14,-96 18,-124 0,-160 -42,-256l92 -50c-18,-35 -16,-62 -13,-116 4,-79 22,-66 22,-137 2,-150 -59,-156 -76,-249 57,-18 46,10 80,-14l5 -49c-123,-147 -273,73 -224,-313 7,-61 -1,-57 34,-77 3,-2 7,-3 11,-4 29,-14 16,8 61,-23 13,133 9,98 76,170 9,-46 9,-94 18,-127 25,-101 96,-76 77,-155 -21,-86 3,16 -55,-38l32 -214c-37,-26 -34,-17 -57,-72 23,-18 49,-13 99,-8l47 159c-51,-12 -46,-23 -83,-51l11 87c2,88 -14,-76 0,22 0,3 8,29 11,40l24 7c59,-10 78,-6 64,65 6,-36 19,-83 20,-98 6,-76 -15,-258 7,-357 17,-7 35,9 25,21l27 -452c15,-191 7,-314 27,-488 21,-189 107,-861 77,-1024 -49,5 -67,11 -27,125l18 43c-44,9 -50,22 -81,58 -24,27 7,4 -26,27l0 -23c0,-2 0,-9 1,-11l12 -212c-277,-1 -584,-1 -855,15l-1269 57c-127,7 -273,37 -420,21 -287,-31 -579,29 -862,-5l47 -51c22,-27 78,-121 166,-74 30,16 -13,12 20,8 110,-12 124,18 214,12 54,-4 126,99 146,-27l33 72c39,-34 80,-38 113,-84l36 53c9,6 48,0 59,-3 81,-26 58,2 135,-9 99,-14 190,-67 301,-71 89,-3 67,14 157,-16 68,-22 158,81 364,-40l28 -18c35,-33 -15,57 11,-15l-15 -18c-2,-2 -6,-6 -9,-8 -47,-35 -112,-33 -44,-103 38,26 -33,-39 15,21 22,26 -2,14 29,31 1,-2 3,-9 3,-7 0,2 3,-6 4,-7l28 -35c23,13 18,23 50,26 79,6 30,29 61,-41 -17,-20 0,-10 -32,-22l-144 -8c-57,0 -119,-1 -178,0 -104,1 -265,-7 -363,11 -67,13 -72,34 -151,41l-548 20c-245,12 -496,-21 -746,-24 -175,-2 -334,36 -498,13 -33,-4 4,2 -27,-9l-134 -4 -3 35c-86,-62 -173,-28 -264,-32 -2,0 -6,0 -9,0l-19 -1c-55,-5 -97,0 -152,29 -4,2 -8,5 -11,6l97 12c-4,5 -9,4 -11,12 -10,31 -29,21 -50,45 37,-8 67,-25 99,-38 -21,65 -9,33 -40,65 -3,3 -6,6 -9,8 -3,3 -12,8 -16,10 -34,17 1,3 -24,6 -4,1 -14,0 -18,1 -2,0 -6,0 -9,0 -4,0 -16,2 -21,2l-118 31c-63,37 -47,95 -100,160 -62,77 -119,-93 -195,-32 58,41 84,14 112,83 -55,43 -39,2 -72,-5 -43,-10 4,16 -75,16 -38,1 -74,-23 -107,-17 -80,16 3,7 -62,91 -183,-106 -27,98 -224,-53l-96 -54c-2,-1 -6,-3 -8,-4 -100,-44 -167,13 -214,-7l-113 -36 35 -59c2,-2 6,-7 9,-11 -37,0 -21,4 -49,-10l-18 -13c-3,-3 -6,-6 -9,-8 -2,-2 -5,-6 -8,-8 -65,-53 -101,-59 -162,-45l-100 4c-6,-43 22,-47 -116,-80 -92,-21 -124,-3 -201,3 -177,11 -378,42 -546,32 -66,-3 -120,19 -185,22 -79,3 -325,4 -388,-9 -118,-23 -235,-76 -346,-106 -140,-38 -275,0 -407,-53 -207,-82 -532,-41 -767,-40 -1058,5 -2115,-18 -3175,-18 -1048,-1 -2091,38 -3138,31 -528,-4 -267,-8 -794,-13 -264,-3 -414,27 -679,14 -511,42 -615,390 -568,521 48,132 17,-31 74,42 -15,14 -6,2 -22,17l-34 35 195 85c31,-9 25,-25 66,-19 -21,143 -36,166 -17,224l-50 9c60,-83 -8,-108 -58,-132 -119,-57 -19,34 -157,-40 -25,19 -1,0 -25,27l-50 64c86,54 147,15 183,72l-83 34c-46,7 -49,0 -86,28 13,53 -9,14 36,60 10,10 39,34 60,49 40,32 77,49 127,70 -10,90 -40,32 -4,143 -54,37 -105,212 -115,290 -19,143 -1173,127 -1158,231 -41,38 49,-43 -23,16l-39 35 37 56c8,13 15,9 18,51 1,11 -11,131 -12,133 -77,-35 33,-18 -46,-66 -13,113 -2,106 -6,205 40,-75 -5,-46 49,-77 -17,73 -28,86 -22,112 36,134 6,-80 16,39 -10,52 -64,60 -48,243 10,106 12,-13 21,74 -31,-25 -63,21 -95,49 14,82 41,95 86,126 -3,3 -8,0 -10,7 -17,63 -19,-49 -38,65l40 107c2,-1 7,-2 9,-3 1,0 5,-9 32,-15 -24,33 -9,-56 -13,37 -4,81 52,65 78,53l118 -34c-51,13 -46,49 -111,65l-157 32c-3,56 -14,111 -1,162 3,-5 6,-18 6,-15l36 -117c59,70 128,-3 223,14z"/>
  </g>
 </g>
</svg>
